<svg width="24" height="24" viewBox="0 0 24 24" fill="none" xmlns="http://www.w3.org/2000/svg">
<path fill-rule="evenodd" clip-rule="evenodd" d="M23 6.65852V17.2354C23 18.3118 22.3321 19.2718 21.3288 19.6512L12.9172 22.8324C12.3262 23.0559 11.6738 23.0559 11.0828 22.8324L2.67122 19.6512C1.6679 19.2718 1 18.3118 1 17.2354V6.65852C1 5.57159 1.68083 4.60466 2.69812 4.23276L11.1097 1.15761C11.6846 0.947463 12.3154 0.947463 12.8903 1.15761L21.3019 4.23276C22.3192 4.60466 23 5.57159 23 6.65852ZM3.16827 5.51881C2.68832 5.69427 2.36929 6.14935 2.36929 6.65852V17.2354C2.36929 17.7397 2.68225 18.1914 3.15559 18.3704L11.5672 21.5516C11.846 21.6571 12.154 21.6571 12.4328 21.5516L20.8444 18.3704C21.3177 18.1914 21.6307 17.7397 21.6307 17.2354V6.65852C21.6307 6.14935 21.3117 5.69427 20.8317 5.51881L12.4201 2.44366C12.1489 2.34451 11.8511 2.34451 11.5799 2.44366L3.16827 5.51881Z" fill="black"/>
<path fill-rule="evenodd" clip-rule="evenodd" d="M17.5046 14.2397C18.1406 13.9924 19.2572 13.0178 19.2572 12.2886C19.2572 10.4281 15.4156 7.0249 12.0259 7.0249C8.63627 7.0249 5.00807 10.0867 4.66223 12.1978C4.50279 13.1711 6.16047 14.1036 6.45542 14.2397C6.94467 12.6955 9.22741 11.8712 10.2329 11.7308C10.2329 11.7308 10.7991 12.4374 12.0808 12.4781C12.8028 12.4781 13.5528 11.8848 13.6797 11.7308C15.6725 12.2839 17.3046 12.9631 17.5046 14.2397ZM11.9584 11.5098C12.8682 11.5098 13.6057 10.6919 13.6057 9.68286C13.6057 8.67387 12.8682 7.85592 11.9584 7.85592C11.0487 7.85592 10.3112 8.67387 10.3112 9.68286C10.3112 10.6919 11.0487 11.5098 11.9584 11.5098Z" fill="black"/>
<path fill-rule="evenodd" clip-rule="evenodd" d="M17.5851 14.3853C17.5847 14.4087 17.5834 14.432 17.5812 14.4552C17.6011 14.5825 17.6002 14.7171 17.5769 14.8595C17.5555 16.0817 15.0314 17.0287 11.9391 16.9747C8.84679 16.9207 6.35726 15.8862 6.3786 14.6641C6.3734 14.4555 6.39616 14.2669 6.44456 14.0964C6.58968 12.9209 9.01363 12.0221 12.0246 12.0747C15.1169 12.1287 17.6064 13.1632 17.5851 14.3853ZM12.0029 16.0804C14.9353 16.1315 17.1687 15.1337 17.1465 14.6149C17.1186 13.9626 14.9929 12.8335 12.0605 12.7823C9.12815 12.7311 7.02491 13.9894 7.02491 14.4647C7.02491 14.8566 7.85187 16.0079 12.0029 16.0804Z" fill="black"/>
</svg>
