<svg width="142" height="142" viewBox="0 0 142 142" fill="none" xmlns="http://www.w3.org/2000/svg">
<g clip-path="url(#clip0_682_57156)">
<path fill-rule="evenodd" clip-rule="evenodd" d="M14.9561 39.9153C14.9561 36.9523 16.8126 34.3041 19.6056 33.283L68.5553 15.3878C70.1336 14.8108 71.8664 14.8108 73.4447 15.3878L122.394 33.283C125.187 34.3041 127.044 36.9523 127.044 39.9153V101.466C127.044 104.4 125.223 107.029 122.468 108.07L73.5185 126.583C71.896 127.196 70.104 127.196 68.4815 126.583L19.5318 108.07C16.7773 107.029 14.9561 104.4 14.9561 101.466V39.9153Z" fill="white"/>
<mask id="mask0_682_57156" style="mask-type:luminance" maskUnits="userSpaceOnUse" x="0" y="0" width="142" height="142">
<path d="M142 0H0V142H142V0Z" fill="white"/>
</mask>
<g mask="url(#mask0_682_57156)">
<path fill-rule="evenodd" clip-rule="evenodd" d="M131 101.467V39.9163C131 35.2841 128.098 31.1571 123.753 29.5684L74.803 11.6733C72.3476 10.7756 69.6525 10.7756 67.197 11.6733L18.2472 29.5684C13.9018 31.1571 11 35.2841 11 39.9163V101.467C11 106.054 13.8467 110.151 18.1323 111.772L67.0821 130.284C69.6063 131.239 72.3937 131.239 74.9179 130.284L123.868 111.772C128.153 110.151 131 106.054 131 101.467ZM14.9561 39.9163C14.9561 36.9533 16.8126 34.3051 19.6056 33.284L68.5553 15.3888C70.1336 14.8118 71.8664 14.8118 73.4447 15.3888L122.394 33.284C125.187 34.3051 127.044 36.9533 127.044 39.9163V101.467C127.044 104.401 125.223 107.03 122.468 108.071L73.5185 126.584C71.896 127.197 70.104 127.197 68.4815 126.584L19.5318 108.071C16.7773 107.03 14.9561 104.401 14.9561 101.467V39.9163ZM33.4603 62.2621C30.8982 65.6489 29.305 68.9329 28.843 71.7532C28.6848 72.7187 28.9569 73.7795 29.6626 74.9408C30.37 76.1048 31.4455 77.253 32.6713 78.3096C34.2589 79.678 35.9888 80.7999 37.2234 81.5189C39.2485 77.198 43.314 73.9561 47.4457 71.6835C52.1535 69.0941 57.2657 67.5861 60.4728 67.1382L61.5177 66.9889C61.6559 67.1615 61.7754 67.2829 61.9056 67.4153C61.976 67.4869 62.0496 67.5616 62.1309 67.6494C62.7511 68.3184 63.806 69.115 64.584 69.5836C66.1821 70.546 68.6883 71.5576 71.5188 71.4706C73.1699 71.4198 75.7173 70.7158 77.1217 69.917C78.8309 68.8759 79.68 68.074 80.0574 67.6966L80.7925 66.9067L81.7789 67.1805C87.7753 68.8446 93.3751 70.7351 97.6509 73.2332C101.252 75.3373 104.105 77.9875 105.335 81.4645C106.755 80.6218 108.403 79.3507 109.852 77.873C110.863 76.8419 111.729 75.7589 112.333 74.7171C112.946 73.659 113.226 72.7526 113.226 72.0427C113.226 69.7378 112.006 66.6983 109.601 63.3182C107.227 59.9818 103.826 56.4917 99.7724 53.3192C91.6318 46.9474 81.1266 42.0565 71.4418 42.0565C61.7218 42.0565 51.526 46.465 43.4655 52.5036C39.4481 55.5133 36.0088 58.8934 33.4603 62.2621ZM41.5766 49.9824C49.9931 43.6771 60.8372 38.9063 71.4418 38.9063C82.0817 38.9063 93.2562 44.2184 101.714 50.8384C105.96 54.1618 109.587 57.8649 112.168 61.492C114.717 65.0755 116.376 68.77 116.376 72.0427C116.376 73.5191 115.82 74.9829 115.058 76.2967C114.288 77.6267 113.241 78.9171 112.101 80.0788C109.849 82.3761 107.04 84.3635 104.863 85.2102L104.843 85.218C104.872 85.4176 104.887 85.6196 104.887 85.8234C104.887 88.1337 103.679 90.2362 101.899 91.9829C100.112 93.7373 97.6413 95.245 94.8193 96.4031C89.3213 98.6594 82.7468 99.9022 72.6605 99.9022C66.4317 99.9022 58.6818 99.5473 52.1743 97.8064C45.7527 96.0885 39.6038 92.8582 38.3282 86.7027C38.3117 86.6228 38.2975 86.5436 38.2858 86.4649C38.2413 86.1646 38.2259 85.8644 38.2369 85.5675L37.3805 85.1723C36.3877 84.7141 33.3309 83.0372 30.6145 80.6958C29.2538 79.5229 27.9131 78.1281 26.9704 76.5768C26.0261 75.0229 25.4143 73.1963 25.7341 71.2439C26.3089 67.7349 28.2127 63.9771 30.948 60.3615C33.6969 56.7277 37.3555 53.1447 41.5766 49.9824ZM96.0617 75.9532C98.203 77.2042 99.8536 78.5501 100.99 80.03C100.55 79.707 100.082 79.3922 99.5886 79.0865C97.6454 77.8812 95.2313 76.7608 92.4834 75.8022C88.421 74.385 83.5767 73.3031 78.3506 72.8352C78.4635 72.7759 78.5745 72.7152 78.6834 72.653C79.957 71.926 81.0639 71.1136 81.8082 70.4605C87.4034 72.0464 92.349 73.7841 96.0617 75.9532ZM62.5361 72.1964C63.0478 72.5046 63.6247 72.7883 64.2684 73.0421C59.2022 73.6084 54.8129 74.6477 51.1877 75.8811C47.1172 77.266 43.7276 78.9211 41.5326 80.477C43.3446 78.0964 45.9987 76.0748 48.964 74.4438C52.9579 72.247 57.2595 70.9022 60.1257 70.3844C60.1738 70.43 60.2246 70.4774 60.278 70.5262C60.784 70.9892 61.5316 71.5915 62.5361 72.1964ZM71.1244 65.958C75.6023 65.958 79.4918 61.8803 79.4918 56.5132C79.4918 51.1461 75.6023 47.0683 71.1244 47.0683C66.6464 47.0683 62.757 51.1461 62.757 56.5132C62.757 61.8803 66.6464 65.958 71.1244 65.958ZM71.1244 67.4676C76.5793 67.4676 81.0014 62.5632 81.0014 56.5132C81.0014 50.4632 76.5793 45.5587 71.1244 45.5587C65.6695 45.5587 61.2474 50.4632 61.2474 56.5132C61.2474 62.5632 65.6695 67.4676 71.1244 67.4676ZM71.1231 58.129C72.0157 58.129 72.7393 57.4054 72.7393 56.5127C72.7393 55.6201 72.0157 54.8965 71.1231 54.8965C70.2305 54.8965 69.5069 55.6201 69.5069 56.5127C69.5069 57.4054 70.2305 58.129 71.1231 58.129ZM71.1231 61.96C74.1315 61.96 76.5704 59.5212 76.5704 56.5127C76.5704 53.5043 74.1315 51.0654 71.1231 51.0654C68.1146 51.0654 65.6758 53.5043 65.6758 56.5127C65.6758 59.5212 68.1146 61.96 71.1231 61.96ZM41.7304 83.8499C43.0552 82.4013 46.7893 79.5858 52.0624 77.7917C57.2841 76.0151 64.2593 74.6369 72.6953 74.6369C79.7575 74.6369 86.3813 75.8892 91.5889 77.706C94.1926 78.6143 96.4183 79.6554 98.1572 80.7339C99.9161 81.8249 101.09 83.089 101.696 84.0281C101.899 84.302 102.022 84.6794 102.088 85.0096C102.154 85.3398 102.171 85.6402 102.171 85.8234C102.171 87.1466 101.475 88.594 99.9971 90.0447C98.5268 91.4877 96.3848 92.825 93.7882 93.8907C88.7154 95.9725 82.5172 97.1864 72.6605 97.1864C66.4803 97.1864 59.0252 96.8279 52.8761 95.1829C46.6411 93.5149 41.9272 90.6866 40.9875 86.1517C40.9838 86.1337 40.9805 86.1167 40.9777 86.1006L40.9754 86.0868L40.9722 86.0663C40.8645 85.3406 41.1493 84.4852 41.7304 83.8499Z" fill="url(#paint0_linear_682_57156)"/>
</g>
</g>
<defs>
<linearGradient id="paint0_linear_682_57156" x1="-9.99999" y1="-42" x2="170.5" y2="184" gradientUnits="userSpaceOnUse">
<stop stop-color="#B456FF"/>
<stop offset="1"/>
</linearGradient>
<clipPath id="clip0_682_57156">
<rect width="142" height="142" fill="white"/>
</clipPath>
</defs>
</svg>
