<svg width="79" height="19" viewBox="0 0 79 19" fill="none" xmlns="http://www.w3.org/2000/svg">
    <path fill-rule="evenodd" clip-rule="evenodd" d="M17.7568 5.14068V13.3067C17.7568 14.1377 17.2411 14.8788 16.4665 15.1718L9.97223 17.6279C9.51599 17.8004 9.01227 17.8004 8.55603 17.6279L2.06176 15.1718C1.28714 14.8788 0.771484 14.1377 0.771484 13.3067V5.14068C0.771484 4.30151 1.29713 3.55498 2.08253 3.26785L8.5768 0.893657C9.0206 0.731411 9.50766 0.731411 9.95146 0.893657L16.4457 3.26785C17.2311 3.55498 17.7568 4.30151 17.7568 5.14068ZM2.44552 4.26076C2.07497 4.39622 1.82866 4.74757 1.82866 5.14068V13.3067C1.82866 13.696 2.07028 14.0448 2.43572 14.183L8.92999 16.639C9.14525 16.7204 9.38301 16.7204 9.59827 16.639L16.0925 14.183C16.458 14.0448 16.6996 13.696 16.6996 13.3067V5.14068C16.6996 4.74757 16.4533 4.39622 16.0827 4.26076L9.58847 1.88656C9.37908 1.81001 9.14919 1.81001 8.93979 1.88656L2.44552 4.26076Z" fill="white"/>
    <path fill-rule="evenodd" clip-rule="evenodd" d="M13.514 10.9938C14.0051 10.8029 14.8672 10.0504 14.8672 9.48741C14.8672 8.05104 11.9012 5.42355 9.28416 5.42355C6.66714 5.42355 3.86595 7.78742 3.59894 9.41734C3.47585 10.1688 4.75567 10.8887 4.98339 10.9938C5.36112 9.8016 7.12353 9.16517 7.89983 9.05677C7.89983 9.05677 8.33694 9.60228 9.32654 9.63375C9.88395 9.63375 10.463 9.17566 10.5609 9.05677C12.0995 9.48378 13.3596 10.0082 13.514 10.9938ZM9.23205 8.88616C9.93443 8.88616 10.5038 8.25466 10.5038 7.47565C10.5038 6.69665 9.93443 6.06515 9.23205 6.06515C8.52967 6.06515 7.96028 6.69665 7.96028 7.47565C7.96028 8.25466 8.52967 8.88616 9.23205 8.88616Z" fill="white"/>
    <path fill-rule="evenodd" clip-rule="evenodd" d="M13.5762 11.1062C13.5759 11.1243 13.5748 11.1423 13.5731 11.1602C13.5885 11.2584 13.5878 11.3624 13.5698 11.4724C13.5533 12.4159 11.6046 13.147 9.21711 13.1054C6.82966 13.0637 4.90761 12.265 4.92408 11.3214C4.92006 11.1604 4.93764 11.0148 4.975 10.8832C5.08704 9.97559 6.95848 9.2817 9.28313 9.32228C11.6706 9.36395 13.5926 10.1626 13.5762 11.1062ZM9.26641 12.4149C11.5304 12.4544 13.2547 11.684 13.2376 11.2835C13.216 10.7799 11.5748 9.90813 9.31085 9.86861C7.04689 9.82909 5.42307 10.8005 5.42307 11.1675C5.42307 11.4701 6.06153 12.359 9.26641 12.4149Z" fill="white"/>
    <path d="M40.253 14.4144H33.5845C33.2589 14.4144 32.955 14.3523 32.6728 14.2283C32.3906 14.1042 32.1432 13.9358 31.9305 13.7232C31.7177 13.5061 31.5506 13.2535 31.429 12.9655C31.3075 12.6731 31.2467 12.363 31.2467 12.0351C31.2467 11.7028 31.3075 11.3927 31.429 11.1047C31.5506 10.8167 31.7177 10.5642 31.9305 10.3471C32.1432 10.13 32.3906 9.95938 32.6728 9.83532C32.955 9.71126 33.2589 9.64924 33.5845 9.64924H38.2472V11.0116H33.5845C33.4456 11.0116 33.3154 11.0404 33.1938 11.098C33.0723 11.1512 32.9659 11.2243 32.8747 11.3174C32.7836 11.4104 32.7119 11.519 32.6598 11.643C32.6077 11.7671 32.5817 11.8978 32.5817 12.0351C32.5817 12.1769 32.6077 12.3098 32.6598 12.4339C32.7119 12.5535 32.7836 12.6598 32.8747 12.7529C32.9659 12.8459 33.0723 12.919 33.1938 12.9722C33.3154 13.0254 33.4456 13.0519 33.5845 13.0519H38.918V9.31029C38.918 9.17295 38.8898 9.04224 38.8333 8.91819C38.7812 8.79413 38.7096 8.68558 38.6184 8.59254C38.5273 8.4995 38.4209 8.42639 38.2993 8.37322C38.1778 8.31562 38.0497 8.28683 37.9151 8.28683H32.5817V6.93106H37.9151C38.2407 6.93106 38.5446 6.99309 38.8268 7.11715C39.109 7.2412 39.3565 7.41178 39.5692 7.62888C39.7819 7.84155 39.9491 8.09188 40.0707 8.37987C40.1922 8.66786 40.253 8.978 40.253 9.31029V14.4144Z" fill="white"/>
    <path d="M50.2377 10.6727C50.2377 11.1867 50.1422 11.6718 49.9512 12.1282C49.7601 12.5801 49.4996 12.9766 49.1697 13.3178C48.8397 13.6545 48.4534 13.9226 48.0105 14.1219C47.5677 14.3169 47.0945 14.4144 46.5909 14.4144H43.5953V13.0519H46.5909C46.9121 13.0475 47.2117 12.9833 47.4896 12.8592C47.7717 12.7307 48.017 12.5601 48.2254 12.3475C48.4338 12.1304 48.5988 11.88 48.7204 11.5965C48.8419 11.3085 48.9027 11.0006 48.9027 10.6727C48.9027 10.3448 48.8419 10.0369 48.7204 9.74892C48.5988 9.4565 48.4338 9.20396 48.2254 8.99129C48.017 8.77419 47.7717 8.60361 47.4896 8.47956C47.2117 8.35107 46.9121 8.28683 46.5909 8.28683H42.9245V16.7894H41.5895V6.93106H46.5909C47.0945 6.93549 47.5677 7.0374 48.0105 7.23677C48.4534 7.43172 48.8397 7.69977 49.1697 8.04093C49.4996 8.37765 49.7601 8.77198 49.9512 9.2239C50.1422 9.67582 50.2377 10.1588 50.2377 10.6727Z" fill="white"/>
    <path d="M60.0487 9.31029C60.0487 9.64259 59.988 9.95273 59.8664 10.2407C59.7449 10.5287 59.5777 10.7813 59.365 10.9984C59.1566 11.211 58.9091 11.3794 58.6226 11.5034C58.3404 11.6275 58.0387 11.6895 57.7174 11.6895H52.6054C52.7009 11.8889 52.8203 12.0728 52.9635 12.2411C53.1068 12.4095 53.2674 12.5535 53.4454 12.6731C53.6234 12.7928 53.8166 12.8858 54.025 12.9523C54.2377 13.0187 54.4592 13.0519 54.6892 13.0519H59.0524V14.4144H54.6892C54.1856 14.4099 53.7124 14.3102 53.2696 14.1153C52.8268 13.9159 52.4404 13.6479 52.1104 13.3111C51.7848 12.97 51.5265 12.5734 51.3355 12.1215C51.1445 11.6696 51.049 11.1867 51.049 10.6727C51.049 10.1588 51.1445 9.67582 51.3355 9.2239C51.5265 8.77198 51.7848 8.37765 52.1104 8.04093C52.4404 7.69977 52.8268 7.43172 53.2696 7.23677C53.7124 7.0374 54.1856 6.93549 54.6892 6.93106H57.7174C58.0387 6.93106 58.3404 6.99309 58.6226 7.11715C58.9091 7.2412 59.1566 7.41178 59.365 7.62888C59.5777 7.84155 59.7449 8.09188 59.8664 8.37987C59.988 8.66786 60.0487 8.978 60.0487 9.31029ZM57.7174 10.3338C57.852 10.3338 57.9801 10.3072 58.1016 10.254C58.2232 10.2008 58.3295 10.1277 58.4207 10.0347C58.5119 9.94166 58.5835 9.83311 58.6356 9.70905C58.6877 9.58499 58.7138 9.45207 58.7138 9.31029C58.7138 9.17295 58.6877 9.04224 58.6356 8.91819C58.5835 8.79413 58.5119 8.68558 58.4207 8.59254C58.3295 8.4995 58.2232 8.42639 58.1016 8.37322C57.9801 8.31562 57.852 8.28683 57.7174 8.28683H54.6892C54.394 8.28683 54.1162 8.33999 53.8557 8.44633C53.5995 8.55266 53.3694 8.69887 53.1654 8.88496C52.9657 9.06661 52.7986 9.28371 52.664 9.53626C52.5337 9.78437 52.4491 10.0502 52.41 10.3338H57.7174Z" fill="white"/>
    <path d="M63.9365 14.4144H62.6015V8.28683H60.6023V6.93106H62.6015V4.20624H63.9365V6.93106H68.6057V8.28683H63.9365V14.4144Z" fill="white"/>
    <path d="M77.1126 14.4144H70.4442C70.1186 14.4144 69.8147 14.3523 69.5325 14.2283C69.2503 14.1042 69.0028 13.9358 68.7901 13.7232C68.5774 13.5061 68.4102 13.2535 68.2886 12.9655C68.1671 12.6731 68.1063 12.363 68.1063 12.0351C68.1063 11.7028 68.1671 11.3927 68.2886 11.1047C68.4102 10.8167 68.5774 10.5642 68.7901 10.3471C69.0028 10.13 69.2503 9.95938 69.5325 9.83532C69.8147 9.71126 70.1186 9.64924 70.4442 9.64924H75.1069V11.0116H70.4442C70.3052 11.0116 70.175 11.0404 70.0534 11.098C69.9319 11.1512 69.8255 11.2243 69.7343 11.3174C69.6432 11.4104 69.5715 11.519 69.5194 11.643C69.4673 11.7671 69.4413 11.8978 69.4413 12.0351C69.4413 12.1769 69.4673 12.3098 69.5194 12.4339C69.5715 12.5535 69.6432 12.6598 69.7343 12.7529C69.8255 12.8459 69.9319 12.919 70.0534 12.9722C70.175 13.0254 70.3052 13.0519 70.4442 13.0519H75.7776V9.31029C75.7776 9.17295 75.7494 9.04224 75.693 8.91819C75.6409 8.79413 75.5692 8.68558 75.4781 8.59254C75.3869 8.4995 75.2805 8.42639 75.159 8.37322C75.0374 8.31562 74.9093 8.28683 74.7748 8.28683H69.4413V6.93106H74.7748C75.1004 6.93106 75.4043 6.99309 75.6865 7.11715C75.9686 7.2412 76.2161 7.41178 76.4288 7.62888C76.6416 7.84155 76.8087 8.09188 76.9303 8.37987C77.0518 8.66786 77.1126 8.978 77.1126 9.31029V14.4144Z" fill="white"/>
    <path fill-rule="evenodd" clip-rule="evenodd" d="M31.2512 14.5102H29.1875L24.4495 9.64196L21.5971 11.7386V14.5102H20.0742V4.78823H21.5971V10.0084L28.7928 4.78823H31.0618L25.6203 8.77727L31.2512 14.5102ZM40.347 14.5102H33.5845C33.2469 14.5102 32.9303 14.4459 32.6357 14.3163C32.3432 14.1878 32.086 14.0129 31.8647 13.7917L31.864 13.791C31.6427 13.5651 31.4689 13.3024 31.3427 13.0035C31.2161 12.6988 31.1527 12.3754 31.1527 12.0351C31.1527 11.6906 31.2158 11.3674 31.3427 11.0668C31.4689 10.7679 31.6427 10.5051 31.864 10.2793C32.0853 10.0534 32.3428 9.87601 32.6357 9.74726C32.9303 9.61773 33.2469 9.55335 33.5845 9.55335H38.3412V11.1075H33.5845C33.4588 11.1075 33.3421 11.1335 33.2334 11.185L33.2321 11.1856L33.2308 11.1862C33.12 11.2347 33.0237 11.301 32.9412 11.3852C32.8587 11.4694 32.7937 11.5676 32.7462 11.6808C32.6992 11.7927 32.6756 11.9105 32.6756 12.0351C32.6756 12.1643 32.6993 12.2841 32.7459 12.3955C32.7933 12.5041 32.8582 12.6004 32.9412 12.6851C33.0237 12.7693 33.12 12.8356 33.2308 12.8841C33.3401 12.9318 33.4577 12.9561 33.5845 12.9561H38.824V9.3103C38.824 9.18683 38.7988 9.06992 38.7481 8.95857L38.7475 8.95727L38.747 8.95596C38.6995 8.84282 38.6345 8.74454 38.552 8.66034C38.4695 8.57615 38.3732 8.50985 38.2623 8.46136L38.261 8.4608L38.2598 8.4602C38.1507 8.4085 38.0361 8.38272 37.9151 8.38272H32.4877V6.83517H37.9151C38.2527 6.83517 38.5694 6.89956 38.864 7.02908C39.1567 7.15777 39.4141 7.33502 39.6353 7.56072C39.8569 7.78232 40.0308 8.04301 40.1569 8.34193C40.2839 8.64261 40.347 8.96575 40.347 9.3103V14.5102ZM39.5692 7.62888C39.3565 7.41178 39.109 7.2412 38.8268 7.11715C38.5446 6.99309 38.2407 6.93106 37.9151 6.93106H32.5817V8.28683H37.9151C38.0497 8.28683 38.1778 8.31562 38.2993 8.37322C38.4209 8.42639 38.5273 8.4995 38.6184 8.59254C38.7096 8.68558 38.7812 8.79413 38.8333 8.91819C38.8898 9.04224 38.918 9.17295 38.918 9.31029V13.0519H33.5845C33.4456 13.0519 33.3154 13.0254 33.1938 12.9722C33.0723 12.919 32.9659 12.8459 32.8747 12.7529C32.7836 12.6598 32.7119 12.5535 32.6598 12.4339C32.6077 12.3098 32.5817 12.1769 32.5817 12.0351C32.5817 11.8978 32.6077 11.7671 32.6598 11.643C32.7119 11.519 32.7836 11.4104 32.8747 11.3174C32.9659 11.2243 33.0723 11.1512 33.1938 11.098C33.3154 11.0404 33.4456 11.0116 33.5845 11.0116H38.2472V9.64924H33.5845C33.2589 9.64924 32.955 9.71126 32.6728 9.83532C32.3906 9.95938 32.1432 10.13 31.9305 10.3471C31.7177 10.5642 31.5506 10.8167 31.429 11.1047C31.3075 11.3927 31.2467 11.7028 31.2467 12.0351C31.2467 12.363 31.3075 12.6731 31.429 12.9655C31.5506 13.2535 31.7177 13.5061 31.9305 13.7232C32.1432 13.9358 32.3906 14.1042 32.6728 14.2283C32.955 14.3523 33.2589 14.4144 33.5845 14.4144H40.253V9.31029C40.253 8.978 40.1922 8.66786 40.0707 8.37987C39.9491 8.09188 39.7819 7.84155 39.5692 7.62888ZM50.0374 12.1661C49.8419 12.6287 49.5749 13.0353 49.2366 13.3851C48.8981 13.7306 48.5015 14.0057 48.0485 14.2097L48.0477 14.21C47.5926 14.4103 47.1067 14.5102 46.5909 14.5102H43.5013V12.9561H46.5902C46.8993 12.9517 47.1861 12.89 47.4516 12.7715C47.7235 12.6477 47.9589 12.4838 48.1586 12.2801C48.3587 12.0715 48.5172 11.8312 48.6342 11.5583C48.7504 11.2829 48.8087 10.988 48.8087 10.6727C48.8087 10.3573 48.7503 10.0623 48.6341 9.78686C48.517 9.50513 48.3584 9.26257 48.159 9.0591L48.1583 9.0584C47.9587 8.85049 47.7237 8.68691 47.4524 8.56762L47.4508 8.56691C47.1857 8.44436 46.8995 8.38272 46.5909 8.38272H43.0185V16.8853H41.4956V6.83517H46.5917C47.1074 6.83971 47.5933 6.94414 48.0482 7.14891C48.5015 7.34857 48.8979 7.62342 49.2364 7.97341C49.5749 8.31893 49.8419 8.72337 50.0374 9.18592C50.2337 9.65036 50.3316 10.1463 50.3316 10.6727C50.3316 11.1991 50.2336 11.6975 50.0374 12.1661ZM49.1697 8.04093C48.8397 7.69977 48.4534 7.43172 48.0105 7.23677C47.5677 7.0374 47.0945 6.93549 46.5909 6.93106H41.5895V16.7894H42.9245V8.28683H46.5909C46.9121 8.28683 47.2117 8.35107 47.4896 8.47956C47.7717 8.60361 48.017 8.77419 48.2254 8.99129C48.4338 9.20396 48.5988 9.4565 48.7204 9.74892C48.8419 10.0369 48.9027 10.3448 48.9027 10.6727C48.9027 11.0006 48.8419 11.3085 48.7204 11.5965C48.5988 11.88 48.4338 12.1304 48.2254 12.3475C48.017 12.5601 47.7717 12.7307 47.4896 12.8592C47.2117 12.9833 46.9121 13.0475 46.5909 13.0519H43.5953V14.4144H46.5909C47.0945 14.4144 47.5677 14.3169 48.0105 14.1219C48.4534 13.9226 48.8397 13.6545 49.1697 13.3178C49.4996 12.9766 49.7601 12.5801 49.9512 12.1282C50.1422 11.6718 50.2377 11.1867 50.2377 10.6727C50.2377 10.1588 50.1422 9.67582 49.9512 9.2239C49.7601 8.77198 49.4996 8.37765 49.1697 8.04093ZM59.1464 12.9561V14.5102H54.6884C54.1729 14.5057 53.6872 14.4036 53.2324 14.2033L53.2317 14.203C52.7786 13.999 52.3825 13.7244 52.044 13.3789L52.0431 13.378C51.7092 13.0282 51.4446 12.6218 51.2492 12.1595C51.0529 11.6951 50.955 11.1991 50.955 10.6727C50.955 10.1463 51.0529 9.65036 51.2492 9.18592C51.4447 8.72351 51.7094 8.31912 52.0436 7.97357C52.3821 7.62349 52.7786 7.34856 53.232 7.14887C53.6869 6.94413 54.1727 6.83971 54.6884 6.83518L54.6892 6.83517L57.7174 6.83517C58.0508 6.83517 58.3651 6.8996 58.6595 7.02898C58.9565 7.1576 59.2141 7.33492 59.4314 7.56104C59.6528 7.78258 59.8266 8.04315 59.9527 8.34193C60.0796 8.64261 60.1427 8.96575 60.1427 9.3103C60.1427 9.65484 60.0796 9.97798 59.9527 10.2787C59.8265 10.5776 59.6527 10.8403 59.4314 11.0662C59.2141 11.288 58.9564 11.463 58.6595 11.5916C58.3651 11.721 58.0508 11.7854 57.7174 11.7854H52.7613C52.8392 11.9249 52.9302 12.0558 53.0345 12.1783C53.1723 12.3402 53.3264 12.4783 53.4971 12.593C53.6675 12.7076 53.8526 12.7968 54.0527 12.8606C54.2562 12.9242 54.4682 12.9561 54.6892 12.9561H59.1464ZM54.025 12.9523C53.8166 12.8858 53.6234 12.7928 53.4454 12.6731C53.2674 12.5535 53.1068 12.4095 52.9635 12.2411C52.8435 12.1001 52.7403 11.9482 52.6538 11.7854C52.637 11.7539 52.6209 11.7219 52.6054 11.6895H57.7174C58.0387 11.6895 58.3404 11.6275 58.6226 11.5034C58.9091 11.3794 59.1566 11.211 59.365 10.9984C59.5777 10.7813 59.7449 10.5287 59.8664 10.2407C59.988 9.95273 60.0487 9.64259 60.0487 9.31029C60.0487 8.978 59.988 8.66786 59.8664 8.37987C59.7449 8.09188 59.5777 7.84155 59.365 7.62888C59.1566 7.41178 58.9091 7.2412 58.6226 7.11715C58.3404 6.99309 58.0387 6.93106 57.7174 6.93106H54.6892C54.1856 6.93549 53.7124 7.0374 53.2696 7.23677C52.8268 7.43172 52.4404 7.69977 52.1104 8.04093C51.7848 8.37765 51.5265 8.77198 51.3355 9.2239C51.1445 9.67582 51.049 10.1588 51.049 10.6727C51.049 11.1867 51.1445 11.6696 51.3355 12.1215C51.5265 12.5734 51.7848 12.97 52.1104 13.3111C52.4404 13.6479 52.8268 13.9159 53.2696 14.1153C53.7124 14.3102 54.1856 14.4099 54.6892 14.4144H59.0524V13.0519H54.6892C54.4592 13.0519 54.2377 13.0187 54.025 12.9523ZM58.0633 8.4608L58.062 8.4602C57.9529 8.4085 57.8384 8.38272 57.7174 8.38272H54.6892C54.4055 8.38272 54.1396 8.43374 53.8909 8.53522C53.6447 8.63745 53.4239 8.77781 53.228 8.95646C53.0369 9.13032 52.8763 9.33855 52.7467 9.5818C52.6386 9.78764 52.5633 10.0062 52.5206 10.2379H57.7174C57.8395 10.2379 57.9549 10.2138 58.0646 10.1659C58.1755 10.1174 58.2718 10.0511 58.3543 9.9669C58.4368 9.8827 58.5017 9.78442 58.5492 9.67128C58.5961 9.55975 58.6198 9.43976 58.6198 9.3103C58.6198 9.1857 58.5962 9.06787 58.5492 8.95596C58.5017 8.84282 58.4368 8.74454 58.3543 8.66034C58.2718 8.57615 58.1755 8.50985 58.0646 8.46136L58.0633 8.4608ZM57.7174 10.3338C57.852 10.3338 57.9801 10.3072 58.1016 10.254C58.2232 10.2008 58.3295 10.1277 58.4207 10.0347C58.5119 9.94166 58.5835 9.83311 58.6356 9.70905C58.6877 9.58499 58.7138 9.45207 58.7138 9.31029C58.7138 9.17295 58.6877 9.04224 58.6356 8.91819C58.5835 8.79413 58.5119 8.68558 58.4207 8.59254C58.3295 8.4995 58.2232 8.42639 58.1016 8.37322C57.9801 8.31562 57.852 8.28683 57.7174 8.28683H54.6892C54.394 8.28683 54.1162 8.33999 53.8557 8.44633C53.5995 8.55266 53.3694 8.69887 53.1654 8.88496C52.9657 9.06661 52.7986 9.28371 52.664 9.53626C52.5485 9.7562 52.4689 9.99008 52.4251 10.2379C52.4195 10.2696 52.4144 10.3016 52.41 10.3338H57.7174ZM64.0305 14.5102H62.5076V8.38272H60.5083V6.83517H62.5076V4.11035H64.0305V6.83517H68.6997V8.38272H64.0305V14.5102ZM63.9365 14.4144H62.6015V8.28683H60.6023V6.93106H62.6015V4.20624H63.9365V6.93106H68.6057V8.28683H63.9365V14.4144ZM77.2066 14.5102H70.4442C70.1066 14.5102 69.7899 14.4459 69.4953 14.3163C69.2028 14.1878 68.9456 14.0129 68.7243 13.7917L68.7236 13.791C68.5023 13.5651 68.3285 13.3024 68.2024 13.0035C68.0757 12.6988 68.0123 12.3754 68.0123 12.0351C68.0123 11.6906 68.0754 11.3674 68.2024 11.0668C68.3285 10.7679 68.5023 10.5051 68.7236 10.2793C68.945 10.0534 69.2024 9.87601 69.4953 9.74726C69.7899 9.61773 70.1066 9.55335 70.4442 9.55335H75.2008V11.1075H70.4442C70.3184 11.1075 70.2017 11.1335 70.093 11.185L70.0917 11.1856L70.0904 11.1862C69.9796 11.2347 69.8833 11.301 69.8008 11.3852C69.7183 11.4694 69.6533 11.5676 69.6058 11.6808C69.5588 11.7927 69.5353 11.9105 69.5353 12.0351C69.5353 12.1644 69.5589 12.2842 69.6056 12.3955C69.6529 12.5041 69.7179 12.6005 69.8008 12.6851C69.8833 12.7693 69.9796 12.8356 70.0904 12.8841C70.1997 12.9318 70.3173 12.9561 70.4442 12.9561H75.6837V9.3103C75.6837 9.18683 75.6584 9.06992 75.6077 8.95857L75.6072 8.95727L75.6066 8.95596C75.5591 8.84282 75.4941 8.74454 75.4116 8.66034C75.3291 8.57615 75.2328 8.50985 75.122 8.46136L75.1207 8.4608L75.1194 8.4602C75.0103 8.4085 74.8957 8.38272 74.7747 8.38272H69.3473V6.83517H74.7747C75.1124 6.83517 75.429 6.89956 75.7236 7.02908C76.0164 7.15779 76.2738 7.33508 76.495 7.56084C76.7166 7.78242 76.8904 8.04306 77.0166 8.34193C77.1435 8.64261 77.2066 8.96575 77.2066 9.3103V14.5102ZM76.4288 7.62888C76.2161 7.41178 75.9686 7.2412 75.6865 7.11715C75.4043 6.99309 75.1004 6.93106 74.7748 6.93106H69.4413V8.28683H74.7748C74.9093 8.28683 75.0374 8.31562 75.159 8.37322C75.2805 8.42639 75.3869 8.4995 75.4781 8.59254C75.5692 8.68558 75.6409 8.79413 75.693 8.91819C75.7494 9.04224 75.7776 9.17295 75.7776 9.31029V13.0519H70.4442C70.3052 13.0519 70.175 13.0254 70.0534 12.9722C69.9319 12.919 69.8255 12.8459 69.7343 12.7529C69.6432 12.6598 69.5715 12.5535 69.5194 12.4339C69.4673 12.3098 69.4413 12.1769 69.4413 12.0351C69.4413 11.8978 69.4673 11.7671 69.5194 11.643C69.5715 11.519 69.6432 11.4104 69.7343 11.3174C69.8255 11.2243 69.9319 11.1512 70.0534 11.098C70.175 11.0404 70.3052 11.0116 70.4442 11.0116H75.1069V9.64924H70.4442C70.1186 9.64924 69.8147 9.71126 69.5325 9.83532C69.2503 9.95938 69.0028 10.13 68.7901 10.3471C68.5774 10.5642 68.4102 10.8167 68.2886 11.1047C68.1671 11.3927 68.1063 11.7028 68.1063 12.0351C68.1063 12.363 68.1671 12.6731 68.2886 12.9655C68.4102 13.2535 68.5774 13.5061 68.7901 13.7232C69.0028 13.9358 69.2503 14.1042 69.5325 14.2283C69.8147 14.3523 70.1186 14.4144 70.4442 14.4144H77.1126V9.31029C77.1126 8.978 77.0518 8.66786 76.9303 8.37987C76.8087 8.09188 76.6416 7.84155 76.4288 7.62888Z" fill="white"/>
</svg>
