<svg width="114" height="116" viewBox="0 0 114 116" fill="none" xmlns="http://www.w3.org/2000/svg">
    <g filter="url(#filter0_ddd_714_160896)">
        <rect x="23.5" y="20" width="67" height="67" rx="7.38441" fill="#151536"/>
        <rect x="23.9188" y="20.4188" width="66.1625" height="66.1625" rx="6.96566" stroke="#512DA8" stroke-width="0.8375"/>
    </g>
    <path fill-rule="evenodd" clip-rule="evenodd" d="M57.0472 51.9837C58.7661 51.9837 60.259 50.4184 60.259 48.3582C60.259 46.2981 58.7661 44.7328 57.0472 44.7328C55.3283 44.7328 53.8353 46.2981 53.8353 48.3582C53.8353 50.4184 55.3283 51.9837 57.0472 51.9837ZM57.0472 52.5632C59.1411 52.5632 60.8385 50.6806 60.8385 48.3582C60.8385 46.0359 59.1411 44.1533 57.0472 44.1533C54.9533 44.1533 53.2559 46.0359 53.2559 48.3582C53.2559 50.6806 54.9533 52.5632 57.0472 52.5632Z" fill="white"/>
    <path fill-rule="evenodd" clip-rule="evenodd" d="M57.048 48.978C57.3906 48.978 57.6684 48.7002 57.6684 48.3576C57.6684 48.0149 57.3906 47.7372 57.048 47.7372C56.7054 47.7372 56.4276 48.0149 56.4276 48.3576C56.4276 48.7002 56.7054 48.978 57.048 48.978ZM57.048 50.4485C58.2028 50.4485 59.139 49.5124 59.139 48.3576C59.139 47.2028 58.2028 46.2666 57.048 46.2666C55.8932 46.2666 54.957 47.2028 54.957 48.3576C54.957 49.5124 55.8932 50.4485 57.048 50.4485Z" fill="white"/>
    <path fill-rule="evenodd" clip-rule="evenodd" d="M49.7302 56.5263C47.7061 57.215 46.2727 58.2957 45.7642 58.8517C45.5411 59.0956 45.4318 59.424 45.4731 59.7025C45.4746 59.7124 45.4765 59.7233 45.479 59.7353C45.8397 61.4761 47.6492 62.5617 50.0425 63.202C52.4028 63.8334 55.2645 63.9711 57.6368 63.9711C61.4204 63.9711 63.7996 63.5051 65.7468 62.706C66.7435 62.2969 67.5657 61.7836 68.1301 61.2297C68.6975 60.6728 68.9645 60.1172 68.9645 59.6093C68.9645 59.539 68.9581 59.4237 68.9328 59.2969C68.9074 59.1702 68.8603 59.0253 68.7821 58.9202C68.5494 58.5597 68.099 58.0745 67.4238 57.6557C66.7563 57.2417 65.902 56.8421 64.9026 56.4934C62.9036 55.796 60.361 55.3153 57.6502 55.3153C54.412 55.3153 51.7345 55.8444 49.7302 56.5263ZM49.3944 55.7929C51.5085 55.0736 54.2995 54.5264 57.6502 54.5264C60.4779 54.5264 63.1365 55.0267 65.2459 55.7626C66.3007 56.1306 67.2274 56.5607 67.9733 57.0233C68.7115 57.4812 69.3069 57.992 69.658 58.536C69.7548 58.686 69.8355 58.8422 69.8948 59.004C69.9661 59.1981 70.007 59.4012 70.007 59.6093C70.007 60.4961 69.5434 61.3032 68.8603 61.9736C68.1741 62.6471 67.2258 63.2258 66.1426 63.6704C64.0322 64.5365 61.5085 65.0135 57.6368 65.0135C55.2459 65.0135 52.271 64.8773 49.7731 64.209C47.3082 63.5496 44.9479 62.3096 44.4582 59.9468C44.4519 59.9161 44.4465 59.8857 44.442 59.8555C44.3477 59.2198 44.5942 58.5864 44.9949 58.1482C45.6752 57.4044 47.3 56.5055 49.3944 55.7929Z" fill="white"/>
    <path fill-rule="evenodd" clip-rule="evenodd" d="M42.5904 50.5653C41.6069 51.8654 40.9954 53.1259 40.818 54.2085C40.7573 54.5792 40.8618 54.9863 41.1327 55.4321C41.4042 55.8789 41.817 56.3197 42.2875 56.7252C42.8969 57.2505 43.561 57.6811 44.0349 57.9571C44.8122 56.2985 46.3728 55.0541 47.9588 54.1818C49.7659 53.1878 51.7282 52.609 52.9593 52.4371L53.3603 52.3797C53.4421 52.4818 53.5068 52.5373 53.5958 52.6333C53.8338 52.8901 54.2387 53.1958 54.5374 53.3757C55.1508 53.7451 56.1128 54.1335 57.1993 54.1C57.8331 54.0805 58.811 53.8103 59.35 53.5037C60.0061 53.1041 60.3321 52.7962 60.4769 52.6514L60.7591 52.3482L61.1377 52.4533C63.4395 53.0921 65.589 53.8177 67.2302 54.7766C68.6127 55.5843 69.7076 56.6016 70.1798 57.9362C70.7248 57.6128 71.3576 57.1249 71.9138 56.5577C72.3019 56.1619 72.6341 55.7461 72.8659 55.3462C73.1013 54.9401 73.2088 54.5922 73.2088 54.3197C73.2088 53.4349 72.7404 52.2682 71.8173 50.9707C70.9062 49.69 69.6005 48.3503 68.0446 47.1326C64.9198 44.6867 60.8873 42.8094 57.1698 42.8094C53.4387 42.8094 49.525 44.5015 46.4309 46.8195C44.8888 47.9748 43.5687 49.2722 42.5904 50.5653ZM45.7059 45.8517C48.9366 43.4314 53.0991 41.6001 57.1698 41.6001C61.2539 41.6001 65.5433 43.6392 68.7899 46.1803C70.4198 47.456 71.8121 48.8774 72.8027 50.2697C73.7813 51.6453 74.4181 53.0634 74.4181 54.3197C74.4181 54.8864 74.2044 55.4483 73.9122 55.9526C73.6163 56.4631 73.2145 56.9584 72.7772 57.4044C71.9123 58.2862 70.8343 59.0491 69.9986 59.374L69.2984 59.6464L69.1821 58.9041C68.9927 57.6943 68.1199 56.6969 66.6202 55.8207C65.1951 54.9881 63.2967 54.3211 61.149 53.7123C60.8633 53.963 60.4384 54.2749 59.9495 54.5539C59.2333 54.9627 58.2783 55.2157 57.2961 55.2157H57.2865L57.2769 55.2154C55.6885 55.1649 54.5254 54.8449 53.7513 54.3787C53.3657 54.1465 53.0787 53.9153 52.8845 53.7376C52.864 53.7188 52.8445 53.7006 52.826 53.6831C51.7258 53.8819 50.0747 54.3981 48.5416 55.2413C46.8475 56.1731 45.418 57.4371 44.925 58.9931L44.7179 59.6469L44.0952 59.3595C43.7141 59.1836 42.5407 58.5399 41.498 57.6412C40.9757 57.191 40.4611 56.6556 40.0993 56.0601C39.7368 55.4636 39.5019 54.7625 39.6247 54.013C39.8453 52.6661 40.5761 51.2236 41.626 49.8358C42.6812 48.4409 44.0856 47.0656 45.7059 45.8517Z" fill="white"/>
    <path fill-rule="evenodd" clip-rule="evenodd" d="M80.0312 41.9869V65.6132C80.0312 67.374 78.9385 68.9467 77.2935 69.5689L58.5039 76.6749C57.535 77.0413 56.465 77.0413 55.4961 76.6749L36.7065 69.5689C35.0615 68.9467 33.9688 67.374 33.9688 65.6132V41.9869C33.9688 40.2088 35.0826 38.6246 36.7506 38.0148L55.5402 31.1456C56.4827 30.8011 57.5173 30.8011 58.4598 31.1456L77.2494 38.0148C78.9174 38.6246 80.0312 40.2088 80.0312 41.9869ZM37.272 39.441C36.1999 39.833 35.4873 40.8495 35.4873 41.9869V65.6132C35.4873 66.7395 36.1864 67.7486 37.2437 68.1485L56.0333 75.2545C56.6561 75.49 57.3439 75.49 57.9667 75.2545L76.7563 68.1485C77.8136 67.7486 78.5127 66.7395 78.5127 65.6132V41.9869C78.5127 40.8495 77.8001 39.833 76.728 39.441L57.9384 32.5719C57.3326 32.3504 56.6674 32.3504 56.0616 32.5719L37.272 39.441Z" fill="white"/>
    <defs>
        <filter id="filter0_ddd_714_160896" x="0.0499995" y="0.737499" width="113.9" height="114.738" filterUnits="userSpaceOnUse" color-interpolation-filters="sRGB">
            <feFlood flood-opacity="0" result="BackgroundImageFix"/>
            <feColorMatrix in="SourceAlpha" type="matrix" values="0 0 0 0 0 0 0 0 0 0 0 0 0 0 0 0 0 0 127 0" result="hardAlpha"/>
            <feMorphology radius="3.35" operator="erode" in="SourceAlpha" result="effect1_dropShadow_714_160896"/>
            <feOffset dy="5.8625"/>
            <feGaussianBlur stdDeviation="3.35"/>
            <feComposite in2="hardAlpha" operator="out"/>
            <feColorMatrix type="matrix" values="0 0 0 0 0 0 0 0 0 0 0 0 0 0 0 0 0 0 0.2 0"/>
            <feBlend mode="normal" in2="BackgroundImageFix" result="effect1_dropShadow_714_160896"/>
            <feColorMatrix in="SourceAlpha" type="matrix" values="0 0 0 0 0 0 0 0 0 0 0 0 0 0 0 0 0 0 127 0" result="hardAlpha"/>
            <feMorphology radius="1.675" operator="dilate" in="SourceAlpha" result="effect2_dropShadow_714_160896"/>
            <feOffset dy="10.8875"/>
            <feGaussianBlur stdDeviation="7.95625"/>
            <feComposite in2="hardAlpha" operator="out"/>
            <feColorMatrix type="matrix" values="0 0 0 0 0 0 0 0 0 0 0 0 0 0 0 0 0 0 0.14 0"/>
            <feBlend mode="normal" in2="effect1_dropShadow_714_160896" result="effect2_dropShadow_714_160896"/>
            <feColorMatrix in="SourceAlpha" type="matrix" values="0 0 0 0 0 0 0 0 0 0 0 0 0 0 0 0 0 0 127 0" result="hardAlpha"/>
            <feMorphology radius="3.35" operator="dilate" in="SourceAlpha" result="effect3_dropShadow_714_160896"/>
            <feOffset dy="4.1875"/>
            <feGaussianBlur stdDeviation="10.05"/>
            <feComposite in2="hardAlpha" operator="out"/>
            <feColorMatrix type="matrix" values="0 0 0 0 0 0 0 0 0 0 0 0 0 0 0 0 0 0 0.12 0"/>
            <feBlend mode="normal" in2="effect2_dropShadow_714_160896" result="effect3_dropShadow_714_160896"/>
            <feBlend mode="normal" in="SourceGraphic" in2="effect3_dropShadow_714_160896" result="shape"/>
        </filter>
    </defs>
</svg>
